<?xml version="1.0" encoding="utf-8" standalone="no"?>
<!DOCTYPE svg PUBLIC "-//W3C//DTD SVG 1.1//EN"
  "http://www.w3.org/Graphics/SVG/1.1/DTD/svg11.dtd">
<!-- Created with matplotlib (https://matplotlib.org/) -->
<svg height="345.6pt" version="1.1" viewBox="0 0 460.8 345.6" width="460.8pt" xmlns="http://www.w3.org/2000/svg" xmlns:xlink="http://www.w3.org/1999/xlink">
 <defs>
  <style type="text/css">
*{stroke-linecap:butt;stroke-linejoin:round;}
  </style>
 </defs>
 <g id="figure_1">
  <g id="patch_1">
   <path d="M 0 345.6 
L 460.8 345.6 
L 460.8 0 
L 0 0 
z
" style="fill:#ffffff;"/>
  </g>
  <g id="axes_1">
   <g id="patch_2">
    <path d="M 70.22 317.72 
L 447.48 317.72 
L 447.48 25.44 
L 70.22 25.44 
z
" style="fill:#ffffff;"/>
   </g>
   <g id="patch_3">
    <path clip-path="url(#p3efd77d325)" d="M 87.368182 317.72 
L 104.733429 317.72 
L 104.733429 317.513707 
L 87.368182 317.513707 
z
" style="fill:#ffff00;"/>
   </g>
   <g id="patch_4">
    <path clip-path="url(#p3efd77d325)" d="M 109.074741 317.72 
L 126.439988 317.72 
L 126.439988 317.383062 
L 109.074741 317.383062 
z
" style="fill:#ffff00;"/>
   </g>
   <g id="patch_5">
    <path clip-path="url(#p3efd77d325)" d="M 130.7813 317.72 
L 148.146548 317.72 
L 148.146548 317.169687 
L 130.7813 317.169687 
z
" style="fill:#ffff00;"/>
   </g>
   <g id="patch_6">
    <path clip-path="url(#p3efd77d325)" d="M 152.48786 317.72 
L 169.853107 317.72 
L 169.853107 316.832249 
L 152.48786 316.832249 
z
" style="fill:#ffff00;"/>
   </g>
   <g id="patch_7">
    <path clip-path="url(#p3efd77d325)" d="M 174.194419 317.72 
L 191.559666 317.72 
L 191.559666 316.301989 
L 174.194419 316.301989 
z
" style="fill:#ffff00;"/>
   </g>
   <g id="patch_8">
    <path clip-path="url(#p3efd77d325)" d="M 195.900978 317.72 
L 213.266226 317.72 
L 213.266226 315.431063 
L 195.900978 315.431063 
z
" style="fill:#ffff00;"/>
   </g>
   <g id="patch_9">
    <path clip-path="url(#p3efd77d325)" d="M 217.607537 317.72 
L 234.972785 317.72 
L 234.972785 314.017704 
L 217.607537 314.017704 
z
" style="fill:#ffff00;"/>
   </g>
   <g id="patch_10">
    <path clip-path="url(#p3efd77d325)" d="M 239.314097 317.72 
L 256.679344 317.72 
L 256.679344 311.731504 
L 239.314097 311.731504 
z
" style="fill:#ffff00;"/>
   </g>
   <g id="patch_11">
    <path clip-path="url(#p3efd77d325)" d="M 261.020656 317.72 
L 278.385903 317.72 
L 278.385903 308.052574 
L 261.020656 308.052574 
z
" style="fill:#ffff00;"/>
   </g>
   <g id="patch_12">
    <path clip-path="url(#p3efd77d325)" d="M 282.727215 317.72 
L 300.092463 317.72 
L 300.092463 302.101062 
L 282.727215 302.101062 
z
" style="fill:#ffff00;"/>
   </g>
   <g id="patch_13">
    <path clip-path="url(#p3efd77d325)" d="M 304.433774 317.72 
L 321.799022 317.72 
L 321.799022 292.420422 
L 304.433774 292.420422 
z
" style="fill:#ffff00;"/>
   </g>
   <g id="patch_14">
    <path clip-path="url(#p3efd77d325)" d="M 326.140334 317.72 
L 343.505581 317.72 
L 343.505581 276.646493 
L 326.140334 276.646493 
z
" style="fill:#ffff00;"/>
   </g>
   <g id="patch_15">
    <path clip-path="url(#p3efd77d325)" d="M 347.846893 317.72 
L 365.21214 317.72 
L 365.21214 250.586934 
L 347.846893 250.586934 
z
" style="fill:#ffff00;"/>
   </g>
   <g id="patch_16">
    <path clip-path="url(#p3efd77d325)" d="M 369.553452 317.72 
L 386.9187 317.72 
L 386.9187 210.939685 
L 369.553452 210.939685 
z
" style="fill:#ffff00;"/>
   </g>
   <g id="patch_17">
    <path clip-path="url(#p3efd77d325)" d="M 391.260012 317.72 
L 408.625259 317.72 
L 408.625259 144.775147 
L 391.260012 144.775147 
z
" style="fill:#ffff00;"/>
   </g>
   <g id="patch_18">
    <path clip-path="url(#p3efd77d325)" d="M 412.966571 317.72 
L 430.331818 317.72 
L 430.331818 39.358095 
L 412.966571 39.358095 
z
" style="fill:#ffff00;"/>
   </g>
   <g id="patch_19">
    <path clip-path="url(#p3efd77d325)" d="M 87.368182 317.72 
L 104.733429 317.72 
L 104.733429 317.671347 
L 87.368182 317.671347 
z
" style="fill:#0000ff;"/>
   </g>
   <g id="patch_20">
    <path clip-path="url(#p3efd77d325)" d="M 109.074741 317.72 
L 126.439988 317.72 
L 126.439988 317.640696 
L 109.074741 317.640696 
z
" style="fill:#0000ff;"/>
   </g>
   <g id="patch_21">
    <path clip-path="url(#p3efd77d325)" d="M 130.7813 317.72 
L 148.146548 317.72 
L 148.146548 317.592132 
L 130.7813 317.592132 
z
" style="fill:#0000ff;"/>
   </g>
   <g id="patch_22">
    <path clip-path="url(#p3efd77d325)" d="M 152.48786 317.72 
L 169.853107 317.72 
L 169.853107 317.512784 
L 152.48786 317.512784 
z
" style="fill:#0000ff;"/>
   </g>
   <g id="patch_23">
    <path clip-path="url(#p3efd77d325)" d="M 174.194419 317.72 
L 191.559666 317.72 
L 191.559666 317.388365 
L 174.194419 317.388365 
z
" style="fill:#0000ff;"/>
   </g>
   <g id="patch_24">
    <path clip-path="url(#p3efd77d325)" d="M 195.900978 317.72 
L 213.266226 317.72 
L 213.266226 317.178324 
L 195.900978 317.178324 
z
" style="fill:#0000ff;"/>
   </g>
   <g id="patch_25">
    <path clip-path="url(#p3efd77d325)" d="M 217.607537 317.72 
L 234.972785 317.72 
L 234.972785 316.847581 
L 217.607537 316.847581 
z
" style="fill:#0000ff;"/>
   </g>
   <g id="patch_26">
    <path clip-path="url(#p3efd77d325)" d="M 239.314097 317.72 
L 256.679344 317.72 
L 256.679344 316.301 
L 239.314097 316.301 
z
" style="fill:#0000ff;"/>
   </g>
   <g id="patch_27">
    <path clip-path="url(#p3efd77d325)" d="M 261.020656 317.72 
L 278.385903 317.72 
L 278.385903 315.423378 
L 261.020656 315.423378 
z
" style="fill:#0000ff;"/>
   </g>
   <g id="patch_28">
    <path clip-path="url(#p3efd77d325)" d="M 282.727215 317.72 
L 300.092463 317.72 
L 300.092463 314.012702 
L 282.727215 314.012702 
z
" style="fill:#0000ff;"/>
   </g>
   <g id="patch_29">
    <path clip-path="url(#p3efd77d325)" d="M 304.433774 317.72 
L 321.799022 317.72 
L 321.799022 311.716079 
L 304.433774 311.716079 
z
" style="fill:#0000ff;"/>
   </g>
   <g id="patch_30">
    <path clip-path="url(#p3efd77d325)" d="M 326.140334 317.72 
L 343.505581 317.72 
L 343.505581 308.001348 
L 326.140334 308.001348 
z
" style="fill:#0000ff;"/>
   </g>
   <g id="patch_31">
    <path clip-path="url(#p3efd77d325)" d="M 347.846893 317.72 
L 365.21214 317.72 
L 365.21214 302.007833 
L 347.846893 302.007833 
z
" style="fill:#0000ff;"/>
   </g>
   <g id="patch_32">
    <path clip-path="url(#p3efd77d325)" d="M 369.553452 317.72 
L 386.9187 317.72 
L 386.9187 292.256479 
L 369.553452 292.256479 
z
" style="fill:#0000ff;"/>
   </g>
   <g id="patch_33">
    <path clip-path="url(#p3efd77d325)" d="M 391.260012 317.72 
L 408.625259 317.72 
L 408.625259 276.514582 
L 391.260012 276.514582 
z
" style="fill:#0000ff;"/>
   </g>
   <g id="patch_34">
    <path clip-path="url(#p3efd77d325)" d="M 412.966571 317.72 
L 430.331818 317.72 
L 430.331818 250.649709 
L 412.966571 250.649709 
z
" style="fill:#0000ff;"/>
   </g>
   <g id="patch_35">
    <path clip-path="url(#p3efd77d325)" d="M 87.368182 317.72 
L 104.733429 317.72 
L 104.733429 317.692166 
L 87.368182 317.692166 
z
" style="fill:#b22222;"/>
   </g>
   <g id="patch_36">
    <path clip-path="url(#p3efd77d325)" d="M 109.074741 317.72 
L 126.439988 317.72 
L 126.439988 317.673975 
L 109.074741 317.673975 
z
" style="fill:#b22222;"/>
   </g>
   <g id="patch_37">
    <path clip-path="url(#p3efd77d325)" d="M 130.7813 317.72 
L 148.146548 317.72 
L 148.146548 317.645262 
L 130.7813 317.645262 
z
" style="fill:#b22222;"/>
   </g>
   <g id="patch_38">
    <path clip-path="url(#p3efd77d325)" d="M 152.48786 317.72 
L 169.853107 317.72 
L 169.853107 317.598915 
L 152.48786 317.598915 
z
" style="fill:#b22222;"/>
   </g>
   <g id="patch_39">
    <path clip-path="url(#p3efd77d325)" d="M 174.194419 317.72 
L 191.559666 317.72 
L 191.559666 317.524209 
L 174.194419 317.524209 
z
" style="fill:#b22222;"/>
   </g>
   <g id="patch_40">
    <path clip-path="url(#p3efd77d325)" d="M 195.900978 317.72 
L 213.266226 317.72 
L 213.266226 317.403392 
L 195.900978 317.403392 
z
" style="fill:#b22222;"/>
   </g>
   <g id="patch_41">
    <path clip-path="url(#p3efd77d325)" d="M 217.607537 317.72 
L 234.972785 317.72 
L 234.972785 317.207501 
L 217.607537 317.207501 
z
" style="fill:#b22222;"/>
   </g>
   <g id="patch_42">
    <path clip-path="url(#p3efd77d325)" d="M 239.314097 317.72 
L 256.679344 317.72 
L 256.679344 316.88995 
L 239.314097 316.88995 
z
" style="fill:#b22222;"/>
   </g>
   <g id="patch_43">
    <path clip-path="url(#p3efd77d325)" d="M 261.020656 317.72 
L 278.385903 317.72 
L 278.385903 316.362146 
L 261.020656 316.362146 
z
" style="fill:#b22222;"/>
   </g>
   <g id="patch_44">
    <path clip-path="url(#p3efd77d325)" d="M 282.727215 317.72 
L 300.092463 317.72 
L 300.092463 315.507519 
L 282.727215 315.507519 
z
" style="fill:#b22222;"/>
   </g>
   <g id="patch_45">
    <path clip-path="url(#p3efd77d325)" d="M 304.433774 317.72 
L 321.799022 317.72 
L 321.799022 314.216578 
L 304.433774 314.216578 
z
" style="fill:#b22222;"/>
   </g>
   <g id="patch_46">
    <path clip-path="url(#p3efd77d325)" d="M 326.140334 317.72 
L 343.505581 317.72 
L 343.505581 312.036891 
L 326.140334 312.036891 
z
" style="fill:#b22222;"/>
   </g>
   <g id="patch_47">
    <path clip-path="url(#p3efd77d325)" d="M 347.846893 317.72 
L 365.21214 317.72 
L 365.21214 308.528366 
L 347.846893 308.528366 
z
" style="fill:#b22222;"/>
   </g>
   <g id="patch_48">
    <path clip-path="url(#p3efd77d325)" d="M 369.553452 317.72 
L 386.9187 317.72 
L 386.9187 302.856375 
L 369.553452 302.856375 
z
" style="fill:#b22222;"/>
   </g>
   <g id="patch_49">
    <path clip-path="url(#p3efd77d325)" d="M 391.260012 317.72 
L 408.625259 317.72 
L 408.625259 293.669371 
L 391.260012 293.669371 
z
" style="fill:#b22222;"/>
   </g>
   <g id="patch_50">
    <path clip-path="url(#p3efd77d325)" d="M 412.966571 317.72 
L 430.331818 317.72 
L 430.331818 278.784241 
L 412.966571 278.784241 
z
" style="fill:#b22222;"/>
   </g>
   <g id="matplotlib.axis_1">
    <g id="xtick_1">
     <g id="line2d_1">
      <defs>
       <path d="M 0 0 
L 0 3.5 
" id="mbb27e8b9bb" style="stroke:#000000;stroke-width:0.8;"/>
      </defs>
      <g>
       <use style="stroke:#000000;stroke-width:0.8;" x="96.050806" xlink:href="#mbb27e8b9bb" y="317.72"/>
      </g>
     </g>
     <g id="text_1">
      <!-- 20 -->
      <defs>
       <path d="M 19.1875 8.296875 
L 53.609375 8.296875 
L 53.609375 0 
L 7.328125 0 
L 7.328125 8.296875 
Q 12.9375 14.109375 22.625 23.890625 
Q 32.328125 33.6875 34.8125 36.53125 
Q 39.546875 41.84375 41.421875 45.53125 
Q 43.3125 49.21875 43.3125 52.78125 
Q 43.3125 58.59375 39.234375 62.25 
Q 35.15625 65.921875 28.609375 65.921875 
Q 23.96875 65.921875 18.8125 64.3125 
Q 13.671875 62.703125 7.8125 59.421875 
L 7.8125 69.390625 
Q 13.765625 71.78125 18.9375 73 
Q 24.125 74.21875 28.421875 74.21875 
Q 39.75 74.21875 46.484375 68.546875 
Q 53.21875 62.890625 53.21875 53.421875 
Q 53.21875 48.921875 51.53125 44.890625 
Q 49.859375 40.875 45.40625 35.40625 
Q 44.1875 33.984375 37.640625 27.21875 
Q 31.109375 20.453125 19.1875 8.296875 
z
" id="DejaVuSans-50"/>
       <path d="M 31.78125 66.40625 
Q 24.171875 66.40625 20.328125 58.90625 
Q 16.5 51.421875 16.5 36.375 
Q 16.5 21.390625 20.328125 13.890625 
Q 24.171875 6.390625 31.78125 6.390625 
Q 39.453125 6.390625 43.28125 13.890625 
Q 47.125 21.390625 47.125 36.375 
Q 47.125 51.421875 43.28125 58.90625 
Q 39.453125 66.40625 31.78125 66.40625 
z
M 31.78125 74.21875 
Q 44.046875 74.21875 50.515625 64.515625 
Q 56.984375 54.828125 56.984375 36.375 
Q 56.984375 17.96875 50.515625 8.265625 
Q 44.046875 -1.421875 31.78125 -1.421875 
Q 19.53125 -1.421875 13.0625 8.265625 
Q 6.59375 17.96875 6.59375 36.375 
Q 6.59375 54.828125 13.0625 64.515625 
Q 19.53125 74.21875 31.78125 74.21875 
z
" id="DejaVuSans-48"/>
      </defs>
      <g transform="translate(89.688306 332.318437)scale(0.1 -0.1)">
       <use xlink:href="#DejaVuSans-50"/>
       <use x="63.623047" xlink:href="#DejaVuSans-48"/>
      </g>
     </g>
    </g>
    <g id="xtick_2">
     <g id="line2d_2">
      <g>
       <use style="stroke:#000000;stroke-width:0.8;" x="117.757365" xlink:href="#mbb27e8b9bb" y="317.72"/>
      </g>
     </g>
     <g id="text_2">
      <!-- 21 -->
      <defs>
       <path d="M 12.40625 8.296875 
L 28.515625 8.296875 
L 28.515625 63.921875 
L 10.984375 60.40625 
L 10.984375 69.390625 
L 28.421875 72.90625 
L 38.28125 72.90625 
L 38.28125 8.296875 
L 54.390625 8.296875 
L 54.390625 0 
L 12.40625 0 
z
" id="DejaVuSans-49"/>
      </defs>
      <g transform="translate(111.394865 332.318437)scale(0.1 -0.1)">
       <use xlink:href="#DejaVuSans-50"/>
       <use x="63.623047" xlink:href="#DejaVuSans-49"/>
      </g>
     </g>
    </g>
    <g id="xtick_3">
     <g id="line2d_3">
      <g>
       <use style="stroke:#000000;stroke-width:0.8;" x="139.463924" xlink:href="#mbb27e8b9bb" y="317.72"/>
      </g>
     </g>
     <g id="text_3">
      <!-- 22 -->
      <g transform="translate(133.101424 332.318437)scale(0.1 -0.1)">
       <use xlink:href="#DejaVuSans-50"/>
       <use x="63.623047" xlink:href="#DejaVuSans-50"/>
      </g>
     </g>
    </g>
    <g id="xtick_4">
     <g id="line2d_4">
      <g>
       <use style="stroke:#000000;stroke-width:0.8;" x="161.170483" xlink:href="#mbb27e8b9bb" y="317.72"/>
      </g>
     </g>
     <g id="text_4">
      <!-- 23 -->
      <defs>
       <path d="M 40.578125 39.3125 
Q 47.65625 37.796875 51.625 33 
Q 55.609375 28.21875 55.609375 21.1875 
Q 55.609375 10.40625 48.1875 4.484375 
Q 40.765625 -1.421875 27.09375 -1.421875 
Q 22.515625 -1.421875 17.65625 -0.515625 
Q 12.796875 0.390625 7.625 2.203125 
L 7.625 11.71875 
Q 11.71875 9.328125 16.59375 8.109375 
Q 21.484375 6.890625 26.8125 6.890625 
Q 36.078125 6.890625 40.9375 10.546875 
Q 45.796875 14.203125 45.796875 21.1875 
Q 45.796875 27.640625 41.28125 31.265625 
Q 36.765625 34.90625 28.71875 34.90625 
L 20.21875 34.90625 
L 20.21875 43.015625 
L 29.109375 43.015625 
Q 36.375 43.015625 40.234375 45.921875 
Q 44.09375 48.828125 44.09375 54.296875 
Q 44.09375 59.90625 40.109375 62.90625 
Q 36.140625 65.921875 28.71875 65.921875 
Q 24.65625 65.921875 20.015625 65.03125 
Q 15.375 64.15625 9.8125 62.3125 
L 9.8125 71.09375 
Q 15.4375 72.65625 20.34375 73.4375 
Q 25.25 74.21875 29.59375 74.21875 
Q 40.828125 74.21875 47.359375 69.109375 
Q 53.90625 64.015625 53.90625 55.328125 
Q 53.90625 49.265625 50.4375 45.09375 
Q 46.96875 40.921875 40.578125 39.3125 
z
" id="DejaVuSans-51"/>
      </defs>
      <g transform="translate(154.807983 332.318437)scale(0.1 -0.1)">
       <use xlink:href="#DejaVuSans-50"/>
       <use x="63.623047" xlink:href="#DejaVuSans-51"/>
      </g>
     </g>
    </g>
    <g id="xtick_5">
     <g id="line2d_5">
      <g>
       <use style="stroke:#000000;stroke-width:0.8;" x="182.877043" xlink:href="#mbb27e8b9bb" y="317.72"/>
      </g>
     </g>
     <g id="text_5">
      <!-- 24 -->
      <defs>
       <path d="M 37.796875 64.3125 
L 12.890625 25.390625 
L 37.796875 25.390625 
z
M 35.203125 72.90625 
L 47.609375 72.90625 
L 47.609375 25.390625 
L 58.015625 25.390625 
L 58.015625 17.1875 
L 47.609375 17.1875 
L 47.609375 0 
L 37.796875 0 
L 37.796875 17.1875 
L 4.890625 17.1875 
L 4.890625 26.703125 
z
" id="DejaVuSans-52"/>
      </defs>
      <g transform="translate(176.514543 332.318437)scale(0.1 -0.1)">
       <use xlink:href="#DejaVuSans-50"/>
       <use x="63.623047" xlink:href="#DejaVuSans-52"/>
      </g>
     </g>
    </g>
    <g id="xtick_6">
     <g id="line2d_6">
      <g>
       <use style="stroke:#000000;stroke-width:0.8;" x="204.583602" xlink:href="#mbb27e8b9bb" y="317.72"/>
      </g>
     </g>
     <g id="text_6">
      <!-- 25 -->
      <defs>
       <path d="M 10.796875 72.90625 
L 49.515625 72.90625 
L 49.515625 64.59375 
L 19.828125 64.59375 
L 19.828125 46.734375 
Q 21.96875 47.46875 24.109375 47.828125 
Q 26.265625 48.1875 28.421875 48.1875 
Q 40.625 48.1875 47.75 41.5 
Q 54.890625 34.8125 54.890625 23.390625 
Q 54.890625 11.625 47.5625 5.09375 
Q 40.234375 -1.421875 26.90625 -1.421875 
Q 22.3125 -1.421875 17.546875 -0.640625 
Q 12.796875 0.140625 7.71875 1.703125 
L 7.71875 11.625 
Q 12.109375 9.234375 16.796875 8.0625 
Q 21.484375 6.890625 26.703125 6.890625 
Q 35.15625 6.890625 40.078125 11.328125 
Q 45.015625 15.765625 45.015625 23.390625 
Q 45.015625 31 40.078125 35.4375 
Q 35.15625 39.890625 26.703125 39.890625 
Q 22.75 39.890625 18.8125 39.015625 
Q 14.890625 38.140625 10.796875 36.28125 
z
" id="DejaVuSans-53"/>
      </defs>
      <g transform="translate(198.221102 332.318437)scale(0.1 -0.1)">
       <use xlink:href="#DejaVuSans-50"/>
       <use x="63.623047" xlink:href="#DejaVuSans-53"/>
      </g>
     </g>
    </g>
    <g id="xtick_7">
     <g id="line2d_7">
      <g>
       <use style="stroke:#000000;stroke-width:0.8;" x="226.290161" xlink:href="#mbb27e8b9bb" y="317.72"/>
      </g>
     </g>
     <g id="text_7">
      <!-- 26 -->
      <defs>
       <path d="M 33.015625 40.375 
Q 26.375 40.375 22.484375 35.828125 
Q 18.609375 31.296875 18.609375 23.390625 
Q 18.609375 15.53125 22.484375 10.953125 
Q 26.375 6.390625 33.015625 6.390625 
Q 39.65625 6.390625 43.53125 10.953125 
Q 47.40625 15.53125 47.40625 23.390625 
Q 47.40625 31.296875 43.53125 35.828125 
Q 39.65625 40.375 33.015625 40.375 
z
M 52.59375 71.296875 
L 52.59375 62.3125 
Q 48.875 64.0625 45.09375 64.984375 
Q 41.3125 65.921875 37.59375 65.921875 
Q 27.828125 65.921875 22.671875 59.328125 
Q 17.53125 52.734375 16.796875 39.40625 
Q 19.671875 43.65625 24.015625 45.921875 
Q 28.375 48.1875 33.59375 48.1875 
Q 44.578125 48.1875 50.953125 41.515625 
Q 57.328125 34.859375 57.328125 23.390625 
Q 57.328125 12.15625 50.6875 5.359375 
Q 44.046875 -1.421875 33.015625 -1.421875 
Q 20.359375 -1.421875 13.671875 8.265625 
Q 6.984375 17.96875 6.984375 36.375 
Q 6.984375 53.65625 15.1875 63.9375 
Q 23.390625 74.21875 37.203125 74.21875 
Q 40.921875 74.21875 44.703125 73.484375 
Q 48.484375 72.75 52.59375 71.296875 
z
" id="DejaVuSans-54"/>
      </defs>
      <g transform="translate(219.927661 332.318437)scale(0.1 -0.1)">
       <use xlink:href="#DejaVuSans-50"/>
       <use x="63.623047" xlink:href="#DejaVuSans-54"/>
      </g>
     </g>
    </g>
    <g id="xtick_8">
     <g id="line2d_8">
      <g>
       <use style="stroke:#000000;stroke-width:0.8;" x="247.99672" xlink:href="#mbb27e8b9bb" y="317.72"/>
      </g>
     </g>
     <g id="text_8">
      <!-- 27 -->
      <defs>
       <path d="M 8.203125 72.90625 
L 55.078125 72.90625 
L 55.078125 68.703125 
L 28.609375 0 
L 18.3125 0 
L 43.21875 64.59375 
L 8.203125 64.59375 
z
" id="DejaVuSans-55"/>
      </defs>
      <g transform="translate(241.63422 332.318437)scale(0.1 -0.1)">
       <use xlink:href="#DejaVuSans-50"/>
       <use x="63.623047" xlink:href="#DejaVuSans-55"/>
      </g>
     </g>
    </g>
    <g id="xtick_9">
     <g id="line2d_9">
      <g>
       <use style="stroke:#000000;stroke-width:0.8;" x="269.70328" xlink:href="#mbb27e8b9bb" y="317.72"/>
      </g>
     </g>
     <g id="text_9">
      <!-- 28 -->
      <defs>
       <path d="M 31.78125 34.625 
Q 24.75 34.625 20.71875 30.859375 
Q 16.703125 27.09375 16.703125 20.515625 
Q 16.703125 13.921875 20.71875 10.15625 
Q 24.75 6.390625 31.78125 6.390625 
Q 38.8125 6.390625 42.859375 10.171875 
Q 46.921875 13.96875 46.921875 20.515625 
Q 46.921875 27.09375 42.890625 30.859375 
Q 38.875 34.625 31.78125 34.625 
z
M 21.921875 38.8125 
Q 15.578125 40.375 12.03125 44.71875 
Q 8.5 49.078125 8.5 55.328125 
Q 8.5 64.0625 14.71875 69.140625 
Q 20.953125 74.21875 31.78125 74.21875 
Q 42.671875 74.21875 48.875 69.140625 
Q 55.078125 64.0625 55.078125 55.328125 
Q 55.078125 49.078125 51.53125 44.71875 
Q 48 40.375 41.703125 38.8125 
Q 48.828125 37.15625 52.796875 32.3125 
Q 56.78125 27.484375 56.78125 20.515625 
Q 56.78125 9.90625 50.3125 4.234375 
Q 43.84375 -1.421875 31.78125 -1.421875 
Q 19.734375 -1.421875 13.25 4.234375 
Q 6.78125 9.90625 6.78125 20.515625 
Q 6.78125 27.484375 10.78125 32.3125 
Q 14.796875 37.15625 21.921875 38.8125 
z
M 18.3125 54.390625 
Q 18.3125 48.734375 21.84375 45.5625 
Q 25.390625 42.390625 31.78125 42.390625 
Q 38.140625 42.390625 41.71875 45.5625 
Q 45.3125 48.734375 45.3125 54.390625 
Q 45.3125 60.0625 41.71875 63.234375 
Q 38.140625 66.40625 31.78125 66.40625 
Q 25.390625 66.40625 21.84375 63.234375 
Q 18.3125 60.0625 18.3125 54.390625 
z
" id="DejaVuSans-56"/>
      </defs>
      <g transform="translate(263.34078 332.318437)scale(0.1 -0.1)">
       <use xlink:href="#DejaVuSans-50"/>
       <use x="63.623047" xlink:href="#DejaVuSans-56"/>
      </g>
     </g>
    </g>
    <g id="xtick_10">
     <g id="line2d_10">
      <g>
       <use style="stroke:#000000;stroke-width:0.8;" x="291.409839" xlink:href="#mbb27e8b9bb" y="317.72"/>
      </g>
     </g>
     <g id="text_10">
      <!-- 29 -->
      <defs>
       <path d="M 10.984375 1.515625 
L 10.984375 10.5 
Q 14.703125 8.734375 18.5 7.8125 
Q 22.3125 6.890625 25.984375 6.890625 
Q 35.75 6.890625 40.890625 13.453125 
Q 46.046875 20.015625 46.78125 33.40625 
Q 43.953125 29.203125 39.59375 26.953125 
Q 35.25 24.703125 29.984375 24.703125 
Q 19.046875 24.703125 12.671875 31.3125 
Q 6.296875 37.9375 6.296875 49.421875 
Q 6.296875 60.640625 12.9375 67.421875 
Q 19.578125 74.21875 30.609375 74.21875 
Q 43.265625 74.21875 49.921875 64.515625 
Q 56.59375 54.828125 56.59375 36.375 
Q 56.59375 19.140625 48.40625 8.859375 
Q 40.234375 -1.421875 26.421875 -1.421875 
Q 22.703125 -1.421875 18.890625 -0.6875 
Q 15.09375 0.046875 10.984375 1.515625 
z
M 30.609375 32.421875 
Q 37.25 32.421875 41.125 36.953125 
Q 45.015625 41.5 45.015625 49.421875 
Q 45.015625 57.28125 41.125 61.84375 
Q 37.25 66.40625 30.609375 66.40625 
Q 23.96875 66.40625 20.09375 61.84375 
Q 16.21875 57.28125 16.21875 49.421875 
Q 16.21875 41.5 20.09375 36.953125 
Q 23.96875 32.421875 30.609375 32.421875 
z
" id="DejaVuSans-57"/>
      </defs>
      <g transform="translate(285.047339 332.318437)scale(0.1 -0.1)">
       <use xlink:href="#DejaVuSans-50"/>
       <use x="63.623047" xlink:href="#DejaVuSans-57"/>
      </g>
     </g>
    </g>
    <g id="xtick_11">
     <g id="line2d_11">
      <g>
       <use style="stroke:#000000;stroke-width:0.8;" x="313.116398" xlink:href="#mbb27e8b9bb" y="317.72"/>
      </g>
     </g>
     <g id="text_11">
      <!-- 30 -->
      <g transform="translate(306.753898 332.318437)scale(0.1 -0.1)">
       <use xlink:href="#DejaVuSans-51"/>
       <use x="63.623047" xlink:href="#DejaVuSans-48"/>
      </g>
     </g>
    </g>
    <g id="xtick_12">
     <g id="line2d_12">
      <g>
       <use style="stroke:#000000;stroke-width:0.8;" x="334.822957" xlink:href="#mbb27e8b9bb" y="317.72"/>
      </g>
     </g>
     <g id="text_12">
      <!-- 31 -->
      <g transform="translate(328.460457 332.318437)scale(0.1 -0.1)">
       <use xlink:href="#DejaVuSans-51"/>
       <use x="63.623047" xlink:href="#DejaVuSans-49"/>
      </g>
     </g>
    </g>
    <g id="xtick_13">
     <g id="line2d_13">
      <g>
       <use style="stroke:#000000;stroke-width:0.8;" x="356.529517" xlink:href="#mbb27e8b9bb" y="317.72"/>
      </g>
     </g>
     <g id="text_13">
      <!-- 32 -->
      <g transform="translate(350.167017 332.318437)scale(0.1 -0.1)">
       <use xlink:href="#DejaVuSans-51"/>
       <use x="63.623047" xlink:href="#DejaVuSans-50"/>
      </g>
     </g>
    </g>
    <g id="xtick_14">
     <g id="line2d_14">
      <g>
       <use style="stroke:#000000;stroke-width:0.8;" x="378.236076" xlink:href="#mbb27e8b9bb" y="317.72"/>
      </g>
     </g>
     <g id="text_14">
      <!-- 33 -->
      <g transform="translate(371.873576 332.318437)scale(0.1 -0.1)">
       <use xlink:href="#DejaVuSans-51"/>
       <use x="63.623047" xlink:href="#DejaVuSans-51"/>
      </g>
     </g>
    </g>
    <g id="xtick_15">
     <g id="line2d_15">
      <g>
       <use style="stroke:#000000;stroke-width:0.8;" x="399.942635" xlink:href="#mbb27e8b9bb" y="317.72"/>
      </g>
     </g>
     <g id="text_15">
      <!-- 34 -->
      <g transform="translate(393.580135 332.318437)scale(0.1 -0.1)">
       <use xlink:href="#DejaVuSans-51"/>
       <use x="63.623047" xlink:href="#DejaVuSans-52"/>
      </g>
     </g>
    </g>
    <g id="xtick_16">
     <g id="line2d_16">
      <g>
       <use style="stroke:#000000;stroke-width:0.8;" x="421.649194" xlink:href="#mbb27e8b9bb" y="317.72"/>
      </g>
     </g>
     <g id="text_16">
      <!-- 35 -->
      <g transform="translate(415.286694 332.318437)scale(0.1 -0.1)">
       <use xlink:href="#DejaVuSans-51"/>
       <use x="63.623047" xlink:href="#DejaVuSans-53"/>
      </g>
     </g>
    </g>
   </g>
   <g id="matplotlib.axis_2">
    <g id="ytick_1">
     <g id="line2d_17">
      <path clip-path="url(#p3efd77d325)" d="M 70.22 317.72 
L 447.48 317.72 
" style="fill:none;stroke:#b0b0b0;stroke-linecap:square;stroke-width:0.8;"/>
     </g>
     <g id="line2d_18">
      <defs>
       <path d="M 0 0 
L -3.5 0 
" id="me57c9bf791" style="stroke:#000000;stroke-width:0.8;"/>
      </defs>
      <g>
       <use style="stroke:#000000;stroke-width:0.8;" x="70.22" xlink:href="#me57c9bf791" y="317.72"/>
      </g>
     </g>
     <g id="text_17">
      <!-- 0 -->
      <g transform="translate(56.8575 321.519219)scale(0.1 -0.1)">
       <use xlink:href="#DejaVuSans-48"/>
      </g>
     </g>
    </g>
    <g id="ytick_2">
     <g id="line2d_19">
      <path clip-path="url(#p3efd77d325)" d="M 70.22 280.557826 
L 447.48 280.557826 
" style="fill:none;stroke:#b0b0b0;stroke-linecap:square;stroke-width:0.8;"/>
     </g>
     <g id="line2d_20">
      <g>
       <use style="stroke:#000000;stroke-width:0.8;" x="70.22" xlink:href="#me57c9bf791" y="280.557826"/>
      </g>
     </g>
     <g id="text_18">
      <!-- 25000 -->
      <g transform="translate(31.4075 284.357045)scale(0.1 -0.1)">
       <use xlink:href="#DejaVuSans-50"/>
       <use x="63.623047" xlink:href="#DejaVuSans-53"/>
       <use x="127.246094" xlink:href="#DejaVuSans-48"/>
       <use x="190.869141" xlink:href="#DejaVuSans-48"/>
       <use x="254.492188" xlink:href="#DejaVuSans-48"/>
      </g>
     </g>
    </g>
    <g id="ytick_3">
     <g id="line2d_21">
      <path clip-path="url(#p3efd77d325)" d="M 70.22 243.395653 
L 447.48 243.395653 
" style="fill:none;stroke:#b0b0b0;stroke-linecap:square;stroke-width:0.8;"/>
     </g>
     <g id="line2d_22">
      <g>
       <use style="stroke:#000000;stroke-width:0.8;" x="70.22" xlink:href="#me57c9bf791" y="243.395653"/>
      </g>
     </g>
     <g id="text_19">
      <!-- 50000 -->
      <g transform="translate(31.4075 247.194872)scale(0.1 -0.1)">
       <use xlink:href="#DejaVuSans-53"/>
       <use x="63.623047" xlink:href="#DejaVuSans-48"/>
       <use x="127.246094" xlink:href="#DejaVuSans-48"/>
       <use x="190.869141" xlink:href="#DejaVuSans-48"/>
       <use x="254.492188" xlink:href="#DejaVuSans-48"/>
      </g>
     </g>
    </g>
    <g id="ytick_4">
     <g id="line2d_23">
      <path clip-path="url(#p3efd77d325)" d="M 70.22 206.233479 
L 447.48 206.233479 
" style="fill:none;stroke:#b0b0b0;stroke-linecap:square;stroke-width:0.8;"/>
     </g>
     <g id="line2d_24">
      <g>
       <use style="stroke:#000000;stroke-width:0.8;" x="70.22" xlink:href="#me57c9bf791" y="206.233479"/>
      </g>
     </g>
     <g id="text_20">
      <!-- 75000 -->
      <g transform="translate(31.4075 210.032698)scale(0.1 -0.1)">
       <use xlink:href="#DejaVuSans-55"/>
       <use x="63.623047" xlink:href="#DejaVuSans-53"/>
       <use x="127.246094" xlink:href="#DejaVuSans-48"/>
       <use x="190.869141" xlink:href="#DejaVuSans-48"/>
       <use x="254.492188" xlink:href="#DejaVuSans-48"/>
      </g>
     </g>
    </g>
    <g id="ytick_5">
     <g id="line2d_25">
      <path clip-path="url(#p3efd77d325)" d="M 70.22 169.071306 
L 447.48 169.071306 
" style="fill:none;stroke:#b0b0b0;stroke-linecap:square;stroke-width:0.8;"/>
     </g>
     <g id="line2d_26">
      <g>
       <use style="stroke:#000000;stroke-width:0.8;" x="70.22" xlink:href="#me57c9bf791" y="169.071306"/>
      </g>
     </g>
     <g id="text_21">
      <!-- 100000 -->
      <g transform="translate(25.045 172.870524)scale(0.1 -0.1)">
       <use xlink:href="#DejaVuSans-49"/>
       <use x="63.623047" xlink:href="#DejaVuSans-48"/>
       <use x="127.246094" xlink:href="#DejaVuSans-48"/>
       <use x="190.869141" xlink:href="#DejaVuSans-48"/>
       <use x="254.492188" xlink:href="#DejaVuSans-48"/>
       <use x="318.115234" xlink:href="#DejaVuSans-48"/>
      </g>
     </g>
    </g>
    <g id="ytick_6">
     <g id="line2d_27">
      <path clip-path="url(#p3efd77d325)" d="M 70.22 131.909132 
L 447.48 131.909132 
" style="fill:none;stroke:#b0b0b0;stroke-linecap:square;stroke-width:0.8;"/>
     </g>
     <g id="line2d_28">
      <g>
       <use style="stroke:#000000;stroke-width:0.8;" x="70.22" xlink:href="#me57c9bf791" y="131.909132"/>
      </g>
     </g>
     <g id="text_22">
      <!-- 125000 -->
      <g transform="translate(25.045 135.708351)scale(0.1 -0.1)">
       <use xlink:href="#DejaVuSans-49"/>
       <use x="63.623047" xlink:href="#DejaVuSans-50"/>
       <use x="127.246094" xlink:href="#DejaVuSans-53"/>
       <use x="190.869141" xlink:href="#DejaVuSans-48"/>
       <use x="254.492188" xlink:href="#DejaVuSans-48"/>
       <use x="318.115234" xlink:href="#DejaVuSans-48"/>
      </g>
     </g>
    </g>
    <g id="ytick_7">
     <g id="line2d_29">
      <path clip-path="url(#p3efd77d325)" d="M 70.22 94.746959 
L 447.48 94.746959 
" style="fill:none;stroke:#b0b0b0;stroke-linecap:square;stroke-width:0.8;"/>
     </g>
     <g id="line2d_30">
      <g>
       <use style="stroke:#000000;stroke-width:0.8;" x="70.22" xlink:href="#me57c9bf791" y="94.746959"/>
      </g>
     </g>
     <g id="text_23">
      <!-- 150000 -->
      <g transform="translate(25.045 98.546177)scale(0.1 -0.1)">
       <use xlink:href="#DejaVuSans-49"/>
       <use x="63.623047" xlink:href="#DejaVuSans-53"/>
       <use x="127.246094" xlink:href="#DejaVuSans-48"/>
       <use x="190.869141" xlink:href="#DejaVuSans-48"/>
       <use x="254.492188" xlink:href="#DejaVuSans-48"/>
       <use x="318.115234" xlink:href="#DejaVuSans-48"/>
      </g>
     </g>
    </g>
    <g id="ytick_8">
     <g id="line2d_31">
      <path clip-path="url(#p3efd77d325)" d="M 70.22 57.584785 
L 447.48 57.584785 
" style="fill:none;stroke:#b0b0b0;stroke-linecap:square;stroke-width:0.8;"/>
     </g>
     <g id="line2d_32">
      <g>
       <use style="stroke:#000000;stroke-width:0.8;" x="70.22" xlink:href="#me57c9bf791" y="57.584785"/>
      </g>
     </g>
     <g id="text_24">
      <!-- 175000 -->
      <g transform="translate(25.045 61.384004)scale(0.1 -0.1)">
       <use xlink:href="#DejaVuSans-49"/>
       <use x="63.623047" xlink:href="#DejaVuSans-55"/>
       <use x="127.246094" xlink:href="#DejaVuSans-53"/>
       <use x="190.869141" xlink:href="#DejaVuSans-48"/>
       <use x="254.492188" xlink:href="#DejaVuSans-48"/>
       <use x="318.115234" xlink:href="#DejaVuSans-48"/>
      </g>
     </g>
    </g>
    <g id="text_25">
     <!-- Y Label -->
     <defs>
      <path d="M -0.203125 72.90625 
L 10.40625 72.90625 
L 30.609375 42.921875 
L 50.6875 72.90625 
L 61.28125 72.90625 
L 35.5 34.71875 
L 35.5 0 
L 25.59375 0 
L 25.59375 34.71875 
z
" id="DejaVuSans-89"/>
      <path id="DejaVuSans-32"/>
      <path d="M 9.8125 72.90625 
L 19.671875 72.90625 
L 19.671875 8.296875 
L 55.171875 8.296875 
L 55.171875 0 
L 9.8125 0 
z
" id="DejaVuSans-76"/>
      <path d="M 34.28125 27.484375 
Q 23.390625 27.484375 19.1875 25 
Q 14.984375 22.515625 14.984375 16.5 
Q 14.984375 11.71875 18.140625 8.90625 
Q 21.296875 6.109375 26.703125 6.109375 
Q 34.1875 6.109375 38.703125 11.40625 
Q 43.21875 16.703125 43.21875 25.484375 
L 43.21875 27.484375 
z
M 52.203125 31.203125 
L 52.203125 0 
L 43.21875 0 
L 43.21875 8.296875 
Q 40.140625 3.328125 35.546875 0.953125 
Q 30.953125 -1.421875 24.3125 -1.421875 
Q 15.921875 -1.421875 10.953125 3.296875 
Q 6 8.015625 6 15.921875 
Q 6 25.140625 12.171875 29.828125 
Q 18.359375 34.515625 30.609375 34.515625 
L 43.21875 34.515625 
L 43.21875 35.40625 
Q 43.21875 41.609375 39.140625 45 
Q 35.0625 48.390625 27.6875 48.390625 
Q 23 48.390625 18.546875 47.265625 
Q 14.109375 46.140625 10.015625 43.890625 
L 10.015625 52.203125 
Q 14.9375 54.109375 19.578125 55.046875 
Q 24.21875 56 28.609375 56 
Q 40.484375 56 46.34375 49.84375 
Q 52.203125 43.703125 52.203125 31.203125 
z
" id="DejaVuSans-97"/>
      <path d="M 48.6875 27.296875 
Q 48.6875 37.203125 44.609375 42.84375 
Q 40.53125 48.484375 33.40625 48.484375 
Q 26.265625 48.484375 22.1875 42.84375 
Q 18.109375 37.203125 18.109375 27.296875 
Q 18.109375 17.390625 22.1875 11.75 
Q 26.265625 6.109375 33.40625 6.109375 
Q 40.53125 6.109375 44.609375 11.75 
Q 48.6875 17.390625 48.6875 27.296875 
z
M 18.109375 46.390625 
Q 20.953125 51.265625 25.265625 53.625 
Q 29.59375 56 35.59375 56 
Q 45.5625 56 51.78125 48.09375 
Q 58.015625 40.1875 58.015625 27.296875 
Q 58.015625 14.40625 51.78125 6.484375 
Q 45.5625 -1.421875 35.59375 -1.421875 
Q 29.59375 -1.421875 25.265625 0.953125 
Q 20.953125 3.328125 18.109375 8.203125 
L 18.109375 0 
L 9.078125 0 
L 9.078125 75.984375 
L 18.109375 75.984375 
z
" id="DejaVuSans-98"/>
      <path d="M 56.203125 29.59375 
L 56.203125 25.203125 
L 14.890625 25.203125 
Q 15.484375 15.921875 20.484375 11.0625 
Q 25.484375 6.203125 34.421875 6.203125 
Q 39.59375 6.203125 44.453125 7.46875 
Q 49.3125 8.734375 54.109375 11.28125 
L 54.109375 2.78125 
Q 49.265625 0.734375 44.1875 -0.34375 
Q 39.109375 -1.421875 33.890625 -1.421875 
Q 20.796875 -1.421875 13.15625 6.1875 
Q 5.515625 13.8125 5.515625 26.8125 
Q 5.515625 40.234375 12.765625 48.109375 
Q 20.015625 56 32.328125 56 
Q 43.359375 56 49.78125 48.890625 
Q 56.203125 41.796875 56.203125 29.59375 
z
M 47.21875 32.234375 
Q 47.125 39.59375 43.09375 43.984375 
Q 39.0625 48.390625 32.421875 48.390625 
Q 24.90625 48.390625 20.390625 44.140625 
Q 15.875 39.890625 15.1875 32.171875 
z
" id="DejaVuSans-101"/>
      <path d="M 9.421875 75.984375 
L 18.40625 75.984375 
L 18.40625 0 
L 9.421875 0 
z
" id="DejaVuSans-108"/>
     </defs>
     <g transform="translate(18.965312 189.712812)rotate(-90)scale(0.1 -0.1)">
      <use xlink:href="#DejaVuSans-89"/>
      <use x="61.083984" xlink:href="#DejaVuSans-32"/>
      <use x="92.871094" xlink:href="#DejaVuSans-76"/>
      <use x="148.583984" xlink:href="#DejaVuSans-97"/>
      <use x="209.863281" xlink:href="#DejaVuSans-98"/>
      <use x="273.339844" xlink:href="#DejaVuSans-101"/>
      <use x="334.863281" xlink:href="#DejaVuSans-108"/>
     </g>
    </g>
   </g>
   <g id="patch_51">
    <path d="M 70.22 317.72 
L 70.22 25.44 
" style="fill:none;stroke:#000000;stroke-linecap:square;stroke-linejoin:miter;stroke-width:0.8;"/>
   </g>
   <g id="patch_52">
    <path d="M 447.48 317.72 
L 447.48 25.44 
" style="fill:none;stroke:#000000;stroke-linecap:square;stroke-linejoin:miter;stroke-width:0.8;"/>
   </g>
   <g id="patch_53">
    <path d="M 70.22 317.72 
L 447.48 317.72 
" style="fill:none;stroke:#000000;stroke-linecap:square;stroke-linejoin:miter;stroke-width:0.8;"/>
   </g>
   <g id="patch_54">
    <path d="M 70.22 25.44 
L 447.48 25.44 
" style="fill:none;stroke:#000000;stroke-linecap:square;stroke-linejoin:miter;stroke-width:0.8;"/>
   </g>
   <g id="text_26">
    <!-- Plot title -->
    <defs>
     <path d="M 19.671875 64.796875 
L 19.671875 37.40625 
L 32.078125 37.40625 
Q 38.96875 37.40625 42.71875 40.96875 
Q 46.484375 44.53125 46.484375 51.125 
Q 46.484375 57.671875 42.71875 61.234375 
Q 38.96875 64.796875 32.078125 64.796875 
z
M 9.8125 72.90625 
L 32.078125 72.90625 
Q 44.34375 72.90625 50.609375 67.359375 
Q 56.890625 61.8125 56.890625 51.125 
Q 56.890625 40.328125 50.609375 34.8125 
Q 44.34375 29.296875 32.078125 29.296875 
L 19.671875 29.296875 
L 19.671875 0 
L 9.8125 0 
z
" id="DejaVuSans-80"/>
     <path d="M 30.609375 48.390625 
Q 23.390625 48.390625 19.1875 42.75 
Q 14.984375 37.109375 14.984375 27.296875 
Q 14.984375 17.484375 19.15625 11.84375 
Q 23.34375 6.203125 30.609375 6.203125 
Q 37.796875 6.203125 41.984375 11.859375 
Q 46.1875 17.53125 46.1875 27.296875 
Q 46.1875 37.015625 41.984375 42.703125 
Q 37.796875 48.390625 30.609375 48.390625 
z
M 30.609375 56 
Q 42.328125 56 49.015625 48.375 
Q 55.71875 40.765625 55.71875 27.296875 
Q 55.71875 13.875 49.015625 6.21875 
Q 42.328125 -1.421875 30.609375 -1.421875 
Q 18.84375 -1.421875 12.171875 6.21875 
Q 5.515625 13.875 5.515625 27.296875 
Q 5.515625 40.765625 12.171875 48.375 
Q 18.84375 56 30.609375 56 
z
" id="DejaVuSans-111"/>
     <path d="M 18.3125 70.21875 
L 18.3125 54.6875 
L 36.8125 54.6875 
L 36.8125 47.703125 
L 18.3125 47.703125 
L 18.3125 18.015625 
Q 18.3125 11.328125 20.140625 9.421875 
Q 21.96875 7.515625 27.59375 7.515625 
L 36.8125 7.515625 
L 36.8125 0 
L 27.59375 0 
Q 17.1875 0 13.234375 3.875 
Q 9.28125 7.765625 9.28125 18.015625 
L 9.28125 47.703125 
L 2.6875 47.703125 
L 2.6875 54.6875 
L 9.28125 54.6875 
L 9.28125 70.21875 
z
" id="DejaVuSans-116"/>
     <path d="M 9.421875 54.6875 
L 18.40625 54.6875 
L 18.40625 0 
L 9.421875 0 
z
M 9.421875 75.984375 
L 18.40625 75.984375 
L 18.40625 64.59375 
L 9.421875 64.59375 
z
" id="DejaVuSans-105"/>
    </defs>
    <g transform="translate(233.905 19.44)scale(0.12 -0.12)">
     <use xlink:href="#DejaVuSans-80"/>
     <use x="60.302734" xlink:href="#DejaVuSans-108"/>
     <use x="88.085938" xlink:href="#DejaVuSans-111"/>
     <use x="149.267578" xlink:href="#DejaVuSans-116"/>
     <use x="188.476562" xlink:href="#DejaVuSans-32"/>
     <use x="220.263672" xlink:href="#DejaVuSans-116"/>
     <use x="259.472656" xlink:href="#DejaVuSans-105"/>
     <use x="287.255859" xlink:href="#DejaVuSans-116"/>
     <use x="326.464844" xlink:href="#DejaVuSans-108"/>
     <use x="354.248047" xlink:href="#DejaVuSans-101"/>
    </g>
   </g>
  </g>
 </g>
 <defs>
  <clipPath id="p3efd77d325">
   <rect height="292.28" width="377.26" x="70.22" y="25.44"/>
  </clipPath>
 </defs>
</svg>
